<?xml version="1.0" encoding="UTF-8"?><svg xmlns="http://www.w3.org/2000/svg" xmlns:xlink="http://www.w3.org/1999/xlink" height="190.6" id="Capa_1" preserveAspectRatio="xMidYMid meet" version="1.1" viewBox="75.7 116.9 274.8 190.6" width="274.8" x="0" xml:space="preserve" y="0" zoomAndPan="magnify"><g id="change1_1"><path d="m322.54 116.88h-228.76c-9.96 0-18.04 8.08-18.04 18.04v0.56c0 9.96 8.08 18.04 18.04 18.04h246.8v-18.6c0-9.96-8.08-18.04-18.04-18.04z" fill="#0075bd"/></g><g id="change2_1"><path d="m93.78 153.52c-9.96 0-18.04-8.08-18.04-18.04v153.99c0 9.96 8.08 18.04 18.04 18.04h228.76c9.96 0 18.04-8.08 18.04-18.04v-135.95h-246.8z" fill="#005986"/></g><g id="change1_2"><path d="m271.35 227c0 9.96 8.08 18.04 18.04 18.04h51.19c9.96 0 8.95-8.08 8.95-18.04v-14.15c0-9.96 1.02-18.04-8.95-18.04h-51.19c-9.96 0-18.04 8.08-18.04 18.04v14.15z" fill="#0075bd"/></g><g id="change2_2"><path d="m279.14 219.92c0 5.76 4.67 10.44 10.44 10.44s10.44-4.67 10.44-10.44c0-5.76-4.67-10.44-10.44-10.44-5.76 0-10.44 4.68-10.44 10.44z" fill="#005986"/></g></svg>